<svg width="96" height="24" viewBox="0 0 96 24" fill="none" xmlns="http://www.w3.org/2000/svg">
<path fill-rule="evenodd" clip-rule="evenodd" d="M82.4775 12.5755C82.5841 12.6197 82.6537 12.724 82.6537 12.8397V20.9273C82.6537 21.7421 82.3311 22.5236 81.7568 23.0997C81.1825 23.6759 80.4036 23.9996 79.5915 23.9996H79.5907C78.7786 23.9996 77.9997 23.6759 77.4254 23.0997C76.8511 22.5236 76.5285 21.7421 76.5285 20.9273V18.6147C76.5285 18.4257 76.6031 18.2444 76.736 18.1105L82.1669 12.638C82.2483 12.556 82.3709 12.5313 82.4775 12.5755ZM59.9079 12.5755C59.8013 12.6197 59.7318 12.724 59.7318 12.8397V20.9273C59.7318 21.7421 60.0544 22.5236 60.6287 23.0997C61.203 23.6759 61.9818 23.9996 62.794 23.9996H62.7947C63.6069 23.9996 64.3858 23.6759 64.96 23.0997C65.5343 22.5236 65.8569 21.7421 65.8569 20.9273V18.6147C65.8569 18.4257 65.7823 18.2444 65.6494 18.1105L60.2185 12.638C60.1371 12.556 60.0145 12.5313 59.9079 12.5755ZM60.5773 7.82295C59.45 8.954 59.45 10.7878 60.5773 11.9189L69.01 20.3796C69.5873 20.9589 70.3704 21.2843 71.1869 21.2843C72.0034 21.2843 72.7865 20.9589 73.3638 20.3796L81.8158 11.8995C82.9421 10.7695 82.9421 8.93731 81.8158 7.80727L81.8156 7.80705C80.6892 6.67689 78.8629 6.67689 77.7365 7.80705L71.1902 14.3751L64.6597 7.82285C63.5324 6.6918 61.7047 6.6918 60.5774 7.82285L60.5773 7.82295ZM65.8817 3.08329C65.8817 1.38158 64.5047 0 62.8086 0C61.1125 0 59.7355 1.38158 59.7355 3.08329C59.7355 4.78498 61.1125 6.16655 62.8086 6.16655C64.5047 6.16655 65.8817 4.78498 65.8817 3.08329ZM82.6607 3.08329C82.6607 1.38158 81.2837 0 79.5876 0C77.8915 0 76.5145 1.38158 76.5145 3.08329C76.5145 4.78498 77.8915 6.16655 79.5876 6.16655C81.2837 6.16655 82.6607 4.78498 82.6607 3.08329ZM13.4872 9.93141H8.41527V23.7715H5.00367V9.93141H0V7.15885H13.4872V9.93141ZM21.4871 14.5182C21.0398 14.4573 20.6455 14.4269 20.3044 14.4269C19.0611 14.4269 18.2461 14.8491 17.8594 15.6934V23.7715H14.5729V11.4261H17.6775L17.7684 12.898C18.428 11.7646 19.3416 11.1979 20.5091 11.1979C20.873 11.1979 21.2141 11.2474 21.5326 11.3462L21.4871 14.5182ZM27.7866 23.9989C29.2194 23.9989 30.3414 23.5045 31.1526 22.5156L31.2436 23.7707H34.3368V11.4253H31.0389V20.1652C30.622 20.9411 29.8562 21.329 28.7418 21.329C27.5743 21.329 26.9905 20.6863 26.9905 19.4008V11.4253H23.704V19.5149C23.7192 20.9829 24.0736 22.0973 24.7673 22.8579C25.461 23.6186 26.4674 23.9989 27.7866 23.9989ZM43.7964 20.36C43.7964 19.9568 43.5974 19.6392 43.1994 19.4072C42.8013 19.1752 42.1626 18.968 41.2832 18.7854C38.3568 18.1693 36.8936 16.9218 36.8936 15.043C36.8936 13.9477 37.3466 13.033 38.2525 12.299C39.1585 11.5649 40.3431 11.1979 41.8063 11.1979C43.368 11.1979 44.6171 11.5668 45.5534 12.3047C46.4897 13.0425 46.9578 14.0009 46.9578 15.1799H43.6713C43.6713 14.7083 43.5197 14.3185 43.2164 14.0104C42.9132 13.7024 42.4393 13.5483 41.7949 13.5483C41.2415 13.5483 40.8131 13.6738 40.5099 13.9249C40.2066 14.1759 40.055 14.4953 40.055 14.8833C40.055 15.2484 40.2275 15.5431 40.5724 15.7675C40.9174 15.9919 41.4993 16.1859 42.318 16.3494C43.1368 16.513 43.8267 16.6974 44.3877 16.9028C46.1239 17.5418 46.9919 18.6485 46.9919 20.223C46.9919 21.3488 46.5105 22.2597 45.5477 22.9557C44.5848 23.6517 43.3415 23.9997 41.8177 23.9997C40.7866 23.9997 39.8712 23.8152 39.0713 23.4463C38.2715 23.0774 37.6441 22.5716 37.1893 21.9288C36.7344 21.286 36.5069 20.592 36.5069 19.8465H39.6229C39.6532 20.4322 39.8693 20.881 40.2711 21.1929C40.6729 21.5047 41.2112 21.6607 41.8859 21.6607C42.5151 21.6607 42.9909 21.5409 43.3131 21.3013C43.6353 21.0617 43.7964 20.7479 43.7964 20.36ZM53.1623 11.4265V8.39149H49.8758V11.4265H48.079V13.8454H49.8758V20.4972C49.9213 22.8324 51.0964 24 53.4011 24C54.0834 24 54.7468 23.9011 55.3912 23.7034V21.2046C55.1107 21.2579 54.7884 21.2845 54.4245 21.2845C53.9318 21.2845 53.5982 21.1856 53.4238 20.9879C53.2494 20.7901 53.1623 20.463 53.1623 20.0066V13.8454H55.2661V11.4265H53.1623ZM90.9392 23.9997C89.1348 23.9997 87.666 23.4444 86.5326 22.3339C85.3991 21.2233 84.8325 19.7438 84.8325 17.8954V17.576C84.8325 16.3361 85.0713 15.2275 85.5489 14.25C86.0265 13.2726 86.7032 12.5196 87.5788 11.9909C88.4544 11.4622 89.4533 11.1979 90.5753 11.1979C92.2583 11.1979 93.5832 11.7304 94.5498 12.7953C95.5164 13.8602 95.9997 15.3701 95.9997 17.325V18.6713H88.1644C88.2706 19.4776 88.5909 20.1242 89.1254 20.611C89.6598 21.0978 90.3365 21.3412 91.1553 21.3412C92.4213 21.3412 93.4107 20.881 94.1233 19.9606L95.7382 21.7748C95.2454 22.4746 94.5782 23.0203 93.7367 23.4121C92.8952 23.8038 91.9627 23.9997 90.9392 23.9997ZM90.5639 13.8678C89.9119 13.8678 89.3831 14.0884 88.9775 14.5296C88.5719 14.9708 88.3123 15.6021 88.1986 16.4236H92.7701V16.1612C92.7549 15.4309 92.5578 14.8662 92.1787 14.4668C91.7997 14.0675 91.2614 13.8678 90.5639 13.8678Z" fill="#00646E"/>
</svg>
